/* XPM */
static char *_7c36c54797746789180bdcb88c456aeeMIpNW0fAD0bWjUs[] = {
/* columns rows colors chars-per-pixel */
"64 64 127 2 ",
"   c None",
".  c #770000",
"X  c #790000",
"o  c #832502",
"O  c #832602",
"+  c #842A03",
"@  c #842B03",
"#  c #852B03",
"$  c #862A03",
"%  c #852C03",
"&  c #8D3D05",
"*  c #8C3E05",
"=  c #8D3E05",
"-  c #8E3E05",
";  c #8C3E06",
":  c #8D3E06",
">  c #914707",
",  c #914907",
"<  c #924807",
"1  c #985209",
"2  c #985309",
"3  c #995309",
"4  c #9E5B0B",
"5  c #9F5B0B",
"6  c #9F5D0B",
"7  c #A5670E",
"8  c #A6660E",
"9  c #A9630C",
"0  c #AA630C",
"q  c #AA640C",
"w  c #AF660D",
"e  c #AF670D",
"r  c #AB6D0F",
"t  c #B2680D",
"y  c #B56A0D",
"u  c #B07411",
"i  c #BB7510",
"p  c #BB7610",
"a  c #B57811",
"s  c #B87C12",
"d  c #B87D12",
"f  c #CC790F",
"g  c #CD790F",
"h  c #CD7A10",
"j  c #CE7D10",
"k  c #CE7D11",
"l  c #CE7E11",
"z  c #BE8514",
"x  c #BE8614",
"c  c #C78A15",
"v  c #C88A15",
"b  c #CC8D15",
"n  c #CD8D15",
"m  c #CF8E15",
"M  c #D28713",
"N  c #D38914",
"B  c #D68E15",
"V  c #D78F15",
"C  c #D68F16",
"Z  c #CC9518",
"A  c #CD9618",
"S  c #D29116",
"D  c #D69016",
"F  c #D39417",
"G  c #D49417",
"H  c #D89116",
"J  c #D89216",
"K  c #D89317",
"L  c #D99517",
"P  c #DA9818",
"I  c #DB9918",
"U  c #DC9918",
"Y  c #DD9D19",
"T  c #DD9E19",
"R  c #DAA41B",
"E  c #DBA41B",
"W  c #DAA51C",
"Q  c #DBA51C",
"!  c #DFA61C",
"~  c #DEA71C",
"^  c #DEA91D",
"/  c #DEAA1D",
"(  c #DFAA1D",
")  c #E0A21B",
"_  c #E0A31B",
"`  c #E1A51B",
"'  c #E1A61B",
"]  c #E3A61B",
"[  c #E4A71B",
"{  c #E1A91C",
"}  c #E2AA1C",
"|  c #E3AA1C",
" . c #E4A81C",
".. c #E5A81C",
"X. c #E5A91C",
"o. c #E4AA1C",
"O. c #E4AA1D",
"+. c #E7AC1D",
"@. c #E6AE1E",
"#. c #E6AF1E",
"$. c #E7B31F",
"%. c #E7B41F",
"&. c #EBB31F",
"*. c #EBB41F",
"=. c #EAB51F",
"-. c #ECB41F",
";. c #EDB41F",
":. c #E9B520",
">. c #E9B620",
",. c #EAB620",
"<. c #EBB620",
"1. c #EBB720",
"2. c #ECB620",
"3. c #EDB720",
"4. c #ECB820",
"5. c #EEBA21",
"6. c #EEBC21",
"7. c #EFBC21",
"8. c #EEBD22",
"9. c #EFBD22",
"0. c #F0BB21",
"q. c #F0BC21",
"w. c #F2BC21",
"e. c #F3BF22",
"r. c #F0C022",
"t. c #F3C022",
"y. c #F2C323",
/* pixels */
"                                                                                                                                ",
"                                                                                                                                ",
"                                                                                                                                ",
"                                                                                                                                ",
"                                                                                                                                ",
"                                                                                                                                ",
"                                                                                                                                ",
"                                                                                                                                ",
"                                                                                                                                ",
"                                                                                                                                ",
"                                                                                                                                ",
"                                                                                                                                ",
"                                                                                                                                ",
"                                                                                                                                ",
"                                                                                                                                ",
"                                                                                                                                ",
"                                                  $ $ % $ $ $ $ $ $ $ $ % $ $                                                   ",
"                                                * * * * * * * * * * * * * * * *                                                 ",
"                                                4 6 t y w 9 9 9 9 9 9 w y t 6 4                                                 ",
"                                              7 u d m S m v c c c c v m S m d u 7                                               ",
"                                          X < r z A ~ | ~ E Q Q Q Q E ~ | ~ A z r < X                                           ",
"                                        . o 1 a A ( :.4.:.$.%.%.%.%.$.:.4.:.( A a 1 o X                                         ",
"                                        < 1 p F | :.w.w.0.2.2.2.2.2.2.w.w.w.:.| G p 1 <                                         ",
"                                      7 r a G  .*.7.t.w.-.+. . . . .+.-.w.t.7.*. .G a r 7                                       ",
"                                  * 6 u z A | *.4.7.w.&.[ U J V V J U ` &.w.7.4.*.| A z u 4 *                                   ",
"                                $ * 6 d A ( :.7.7.7.:. .I N j f f j N I  .:.7.7.7.:.( A d 6 * $                                 ",
"                                $ * t m ~ :.w.t.w.:.+._ L M j h h j M L _ +.:.w.t.w.:.~ m t * $                                 ",
"                                % * y S | 4.w.w.&. ._ Y I J D V V D J I Y _  .&.w.w.4.| S y * %                                 ",
"                                $ * w m ~ :.w.-.[ I L I Y _ ` ` ` ` _ Y I L I ` -.w.:.~ m w * $                                 ",
"                                $ * 9 c E $.2.+.U N M J _ +.*.:.:.*.+._ J M N U +.2.$.E v 9 * $                                 ",
"                                $ * 9 c Q %.2. .J j j V ` *.7.t.t.7.*.` V j j J  .2.%.Q c 9 * $                                 ",
"                                $ * 9 c Q %.2. .V f h V ` :.t.t.t.t.:.` V h f V  .2.%.Q c 9 * $                                 ",
"                                $ * 9 c Q %.2. .V f h V ` :.t.t.t.t.:.` V h f V  .2.%.Q c 9 * $                                 ",
"                                $ * 9 c Q %.2. .J j j V ` *.7.t.t.7.*.` V j j J  .2.%.Q c 9 * $                                 ",
"                                $ * 9 v E %.2.+.U N M J _ +.*.:.1.*.+._ J M N U +.2.$.E v 9 * $                                 ",
"                                $ * w m ~ :.w.-.[ I L I Y _ ` ` ` ` _ Y I L I ` -.w.:.~ m w * $                                 ",
"                                $ * y S | 4.w.w.&. ._ Y I J D V V D J I Y _  .&.w.w.4.| S y * %                                 ",
"                                $ * t m ~ :.w.t.w.:.+._ L M j h h j M L _ +.:.w.t.w.:.~ m t * $                                 ",
"                                $ * 6 d A ( :.7.7.7.:. .I N j f f j N I  .:.7.7.7.:.( A d 6 * $                                 ",
"                                  * 6 u z A | *.4.7.w.&.[ U J V V J U ` &.w.7.4.*.| A z u 4 *                                   ",
"                                      7 r a G  .*.7.t.w.-.+. . . . .+.-.w.t.7.*. .F a r 7                                       ",
"                                        > 1 p G | :.w.w.0.2.2.2.2.2.2.w.w.w.:.| G p 1 <                                         ",
"                                        X o 1 a A ( :.4.:.%.%.%.%.%.$.:.4.:.( A a 1 o X                                         ",
"                                          X > r z A ~ | ~ E Q Q Q Q E ~ | ~ A z r < .                                           ",
"                                              7 u d m S m v c c c c v m S m d u 7                                               ",
"                                                6 6 t y w q 9 9 9 9 9 w y t 6 6                                                 ",
"                                                * * * * * * * * * * * * * * * *                                                 ",
"                                                  $ $ $ $ $ $ $ $ $ $ $ $ $ $                                                   ",
"                                                                                                                                ",
"                                                                                                                                ",
"                                                                                                                                ",
"                                                                                                                                ",
"                                                                                                                                ",
"                                                                                                                                ",
"                                                                                                                                ",
"                                                                                                                                ",
"                                                                                                                                ",
"                                                                                                                                ",
"                                                                                                                                ",
"                                                                                                                                ",
"                                                                                                                                ",
"                                                                                                                                ",
"                                                                                                                                ",
"                                                                                                                                "
};
