/* XPM */
static char *_5b2e26f0dde408da71a14d7b469f122k49IpE292pnofDSc[] = {
/* columns rows colors chars-per-pixel */
"64 64 43 1 ",
"  c #353445",
". c #3B3B4A",
"X c #3C3B4A",
"o c #3C3C4B",
"O c #3D3D4C",
"+ c #3F404E",
"@ c #40404F",
"# c #414150",
"$ c #424452",
"% c #444553",
"& c #464755",
"* c #464856",
"= c #484956",
"- c #474A58",
"; c #494B59",
": c #4A4D5A",
"> c #4C4E5B",
", c #4B4F5C",
"< c #4C4F5C",
"1 c #4E515E",
"2 c #50535F",
"3 c #505360",
"4 c #535662",
"5 c #545763",
"6 c #555863",
"7 c #555864",
"8 c #5B5E69",
"9 c #5E606B",
"0 c #5F626D",
"q c #60636D",
"w c #62656F",
"e c #636671",
"r c #646772",
"t c #666873",
"y c #676A74",
"u c #686B76",
"i c #6A6D77",
"p c #6A6E78",
"a c #6C6F79",
"s c #6E717A",
"d c #6F727C",
"f c #70737D",
"g c #71747D",
/* pixels */
"Oo.@::OO::@..@::OO::@....+;11,:*@XX....@::@..@::@....@::OO::OO*:",
"OOO%::$$::$++$::$$::$+##@$:1,152#.+###@$::$++$::$+##@$::$$::#%27",
"o@*:<<::<<:;;:<<::<<:;;;;::<:4eq=.*::;;:<<:;;:<<:;;;;:<<::<:*2wi",
".#:1<<11<<1111<<11<<111111<:;7iy;.:11111<<1111<<111111<<11<<:5ei",
".@;1<<<<<<<<<<<<<<<<<<<<<<<::7it=.;11<<<<<<<<<<<<<<<<<<<<<<<<134",
"@$:1<<<<<<<<<<<<<<<<<<<<<<<::7ut=.;1<<<<<<<<<<<<<<<<<<<<<<<<<124",
"::<<<<<<<<<<<<<<<<<<<<<<<<<::7ut=.;1<<<<<<<<<<<<<<<<<<<<<<<,:4qy",
"::<<<<<<<<<<<<<<<<<<<<<<<<<::7ut=.;1<<<<<<<<<<<<<<<<<<<<<<<:;5yd",
"@$:1<<<<<<<<<<<<<<<<<<<<<<<::7ut=.;1<<<<<<<<<<<<<<<<<<<<<<<::5ts",
".+;1<<<<<<<<<<<<<<<<<<<<<<<::7it=.;1<<<<<<<<<<<<<<<<<<<<<<<::5ts",
".+;1<<<<<<<<<<<<<<<<<<<<<<<:;7iy;.;1<<<<<<<<<<<<<<<<<<<<<<<:;5yd",
"@$:1<<<<<<<<<<<<<<<<<<<<<<<,:4eq*o;1<<<<<<<<<<<<<<<<<<<<<<<,:4qy",
"::<<<<<<<<<<<<<<<<<<<<<<<<<<<14<+O;1<<<<<<<<<<<<<<<<<<<<<<<<:145",
"::<<<<<<<<<<<<<<<<<<<<<<<<<<<141%#:1<<<<<<<<<<<<<<<<<<<<<<<<<::;",
"@$:1<<<<<<<<<<<<<<<<<<<<<<<::4rr4;:<<<<<<<<<<<<<<<<<<<<<<<<<<::;",
".+;1<<<<<<<<<<<<<<<<<<<<<<<::4rr4-:<<<<<<<<<<<<<<<<<<<<<<<<<:145",
".#;1<<<<<<<<<<<<<<11<<<<<<<<<141$#:1<<<<<<<<<<<<<<<<<<<<<<<,:4qy",
".#;1<<<<<<<<<<<<<::::1<<<<<<<141$#:1<<<<<<<<<<<<<<<<<<<<<<<:;5yd",
".+;1<<<<<<<<<<<<1:##:11<<<<,:4ew4;:<<<<<<<<<<<<<<<<<<<<<<<<::5ts",
"@$:1<<<<<<<<<<<<1:#@*:<1<<<:;7ii5*:<<<<<<<<<<<<<<<<<<<<<<<<::5ts",
";::<<<<<<<<<<<<<<::*@#:11<<::7it>+;1<<<<<<<<<<<<<<<<<<<<<<<::5ts",
"11<<<<<<<<<<<<<<<11:#@*:<1<::7it=.;1<<<<<<<<<<<<<<<<<<<<<<<::5ts",
"<<<<<<<<<<<<<<<<<<1<:*#$:11:;7iy=.;1<<<<<<<<<<<<<<<<<<<<<<<::5ts",
"<<<<<<<<<<<<<<<<<<<11:OO&:><:4eq;+:1<<<<<<<<<<<<<<<<<<<<<<<::5ts",
"11<<<<<<<<<<<<<<<<<<1;O.O$:1<142:::<<<<<<<<<<<<<<<<<<<<<<<<::5ts",
";::<<<<<<<<<<<<<<<<<1:$OO#:1<13411<<<<<<<<<<<<<<<<<<<<<<<<<::5ts",
"@$:1<<<<<<<<<<<<<<<<<::;;::<:4we5:<<<<<<<<<<<<<<<<<<<<<<<<<::5ts",
".@;1<<,::,<<,::::,<<:,<11<<:;7ii4*:,:::,<<::<<,::,<<,:::::::;4ts",
".#:11::;;:<<:;::;:<<:;:::::;*4ut>O*:::;:<<::<<:;;:<<:;:::::;*4ts",
"o@*::1477411477774114777557548ir=O1777741144114774114775775548ys",
"OOO$;7eipe44eiiiie43wiiuuuuuuidr&%qpuuie44tt43wipe44eiuuuuuyyias",
"Oo.O$4eiu0<1wittyq24eittyyttttu9%%9uuuu011ww24eiu0110uuyttyuuytt",
"OO..o&45>&O%45>==;:154::44>==>42#o%>44>&@@&::154>&@@&>44::477555",
"OO@#O#;*O.O#;*+..+:1:*OO**+..+*;$O.O**O.OO.+;1:*O.OO.O**OO*:::::",
"o@*:;:::;;;:::;;;::<<:;;::;;;;::::;;::;;;;;;:<<:;;;;;;::;;:<::::",
".#:111<<1111<<1111<<<<11<<1111<:::11<<111111<<<<111111<<11<<<<,:",
"X#:11<<<<<<<<<<<<<<<<<<<<<<<<<1:$$:1<<<<<<<<<<<<<<<<<<<<<<<<<::;",
".#;1<<<<<<<<<<<<<<<<<<<<<<<<<<1;OO;1<<<<<<<<<<<<<<<<<<<<<<<<:145",
".+;1<<<<<<<<<<<<<<<<<<<<<<<<<,:*OO;1<<<<11<<<<<<<<<<<<<<<<<,:4qy",
"@$:1<<<<<<<<<<<<<<<<<<<<<<<<:153&#:1<<1::::<<<<<<<<<<<<<<<<:;6yf",
"::<<<<<<<<<<<<<<<<<<<<<<<<<,:4ee4;:<<11:##:1<<<<<<<<<<<<<<<:;6yf",
"::<<<<<<<<<<<<<<<<<<<<<<<<<:;7ii5*:11<:*@#:1<<<<<<<<<<<<<<<,:4qy",
"O$:1<<<<<<<<<<<<<<<<<<<<<<<:;7pu>+:11:$#*::<<<<<<<<<<<<<<<<<<124",
"O$:1<<<<<<<<<<<<<<<<<<<<<<<,:4e0&.&::*OO:11<<<<<<<<<<<<<<<<<<124",
"::<<<<<<<<<<<<<<<<<<<<<<<<<<<141@.+##+.O;1<<<<<<<<<<<<<<<<<,:4qy",
"::<<<<<<<<<<<<<<<<<<<<<<<<<<<141&Oo..oO%:1<<<<<<<<<<<<<<<<<:;5yd",
"@$:1<<<<<<<<<<<<<<<<<<<<<<<::4rr4&+..O*:<<<<<<<<<<<<<<<<<<<::5ts",
".+;1<<<<<<<<<<<<<<<<<<<<<<<::4rr4&OoO%:11<<<<<<<<<<<<<<<<<<::5ts",
".#;1<<<<<<<<<<<<<<<<<<<<<<<<<141%O.O*:<1<<<<<<<<<<<<<<<<<<<::5ts",
"X#:1<<<<<<<<<<<<<<<<<<<<<<<<<141%OO%:11<<<<<<<<<<<<<<<<<<<<::5ts",
"X#:1<<<<<<<<<<<<<<<<<<<<<<<,:4ew4*;:<1<<<<<<<<<<<<<<<<<<<<<::5ts",
".#;1<<<<<<<<<<<<<<<<<<<<<<<:;7ii5*<1<<<<<<<<<<<<<<<<<<<<<<<::5ts",
".+;1<<<<<<<<<<<<<<<<<<<<<<<::7it>+:1<<<<<<<<<<<<<<<<<<<<<<<::5ts",
"@$:1<<<<<<<<<<<<<<<<<<<<<<<::7ut=.;1<<<<<<<<<<<<<<<<<<<<<<<::5ts",
"::><11<<<<<<<<<<<<<<<<<<<<<::7ut=.;1<<<<<<<<<<<<<<<<<<<<<<<:;5yd",
"::<<:::<<<<<<<<<<<<<<<<<<<<::7ut=.;1<<<<<<<<<<<<<<<<<<<<<<<,:4qy",
"@%<:##:1<<<<<<<<<<<<<<<<<<<::7ut=.;1<<<<<<<<<<<<<<<<<<<<<<<<<124",
".O*=##:1<<<<<<<<<<<<<<<<<<<::7ut=.;1<<<<<<<<<<<<<<<<<<<<<<<<<124",
"oOO#*::<<<<<<<<<<<<<<<<<<<<::7ut=.;1<<<<<<<<<<<<<<<<<<<<<<<,:4qy",
"OOO$:1<:<<::<<,::::::,<<,:::;5ut=.;1<::,<<,::,<<,::::::,<<,:;5yd",
"X@*:::;:<<::<<:;::::;:<<:;:;*4ut=.;1:;;:<<:;;:<<:;::::;:<<:;*4ts",
"X@*147741144114555555411455448ir=.*146641146641145555554114548ys",
"OOo:0uuq23ee32qyttttyq22qytttysr=.*4wyyq22qyyq22qyttttyq22qytyip",
"O. =rgfy44ii44ydssssdy44ydssssse=.&7yffy44yffy44ydssssdy44ydsspp"
};
