/* XPM */
static char *_3aff41b8f9f4323fa4686b2392944e0fYZqfapAy5Kc1R6i[] = {
/* columns rows colors chars-per-pixel */
"66 64 156 2 ",
"   c None",
".  c #000003",
"X  c #000008",
"o  c #0F0008",
"O  c #160608",
"+  c #170808",
"@  c #21000C",
"#  c #37160C",
"$  c #321D0E",
"%  c #3E1E0D",
"&  c #330210",
"*  c #350A11",
"=  c #371013",
"-  c #3F220F",
";  c #3D2413",
":  c #401F0E",
">  c #41220F",
",  c #442510",
"<  c #482711",
"1  c #472811",
"2  c #4C2C14",
"3  c #512F15",
"4  c #4E3115",
"5  c #523316",
"6  c #5A3517",
"7  c #543518",
"8  c #593619",
"9  c #5D3B1B",
"0  c #6D3F0B",
"q  c #633C17",
"w  c #623E1C",
"e  c #6F400C",
"r  c #724001",
"t  c #764A03",
"y  c #784C05",
"u  c #7E5A05",
"i  c #7A590F",
"p  c #64421E",
"a  c #66421E",
"s  c #67421E",
"d  c #66421F",
"f  c #67421F",
"g  c #66431F",
"h  c #67431F",
"j  c #65401E",
"k  c #63441F",
"l  c #67441F",
"z  c #65421E",
"x  c #684718",
"c  c #68441F",
"v  c #68431F",
"b  c #7A5910",
"n  c #7A5A10",
"m  c #7B5B11",
"M  c #7C5B12",
"N  c #70511F",
"B  c #614220",
"V  c #634520",
"C  c #644520",
"Z  c #674420",
"A  c #644620",
"S  c #654620",
"D  c #654721",
"F  c #674520",
"G  c #684420",
"H  c #684520",
"J  c #694520",
"K  c #6A4520",
"L  c #694721",
"P  c #6A4621",
"I  c #6A4721",
"U  c #6B4721",
"Y  c #684723",
"T  c #694621",
"R  c #674821",
"E  c #684821",
"W  c #6A4821",
"Q  c #684822",
"!  c #694922",
"~  c #6B4822",
"^  c #6A4822",
"/  c #694A22",
"(  c #6A4B23",
")  c #6B4B23",
"_  c #6C4922",
"`  c #6D4A23",
"'  c #6E4B23",
"]  c #6B4C23",
"[  c #6C4C23",
"{  c #6B4C24",
"}  c #6B4D24",
"|  c #6A4C24",
" . c #6C4C24",
".. c #6C4D24",
"X. c #6D4D24",
"o. c #6E4D24",
"O. c #6F4D24",
"+. c #6D4E24",
"@. c #6D4F25",
"#. c #6E4E24",
"$. c #6E4E25",
"%. c #6F4E25",
"&. c #6F4F25",
"*. c #6E4F25",
"=. c #6C4D26",
"-. c #6C4B23",
";. c #704F25",
":. c #714F25",
">. c #704E25",
",. c #704F25",
"<. c #6F5025",
"1. c #6F5025",
"2. c #705025",
"3. c #715025",
"4. c #715026",
"5. c #715126",
"6. c #705126",
"7. c #725126",
"8. c #725226",
"9. c #735226",
"0. c #725227",
"q. c #735227",
"w. c #735327",
"e. c #745327",
"r. c #735427",
"t. c #745427",
"y. c #755427",
"u. c #725226",
"i. c #745428",
"p. c #745528",
"a. c #755528",
"s. c #765528",
"d. c #765628",
"f. c #765629",
"g. c #775629",
"h. c #775729",
"j. c #755528",
"k. c #785729",
"l. c #785829",
"z. c #79582A",
"x. c #79592A",
"c. c #78582A",
"v. c #805C09",
"b. c #816106",
"n. c #826208",
"m. c #836209",
"M. c #A8620C",
"N. c #BF6F0C",
"B. c #C98413",
"V. c #C3981A",
"C. c #E79917",
"Z. c #E79918",
"A. c #D7A21A",
"S. c #D8A21B",
"D. c #DFB01E",
"F. c #F8BC21",
/* pixels */
"                                                                                                                                    ",
"                                                                                                                                    ",
"                                                                                                                                    ",
"                                                                                                                                    ",
"                                                                                                                                    ",
"                                                                                                                                    ",
"                                                                                                                                    ",
"                                                                                                                                    ",
"                                                                                                                                    ",
"                                                                                                                                    ",
"                                                                                                                                    ",
"                                                                                                                                    ",
"                                                                                                                                    ",
"                                                                                                                                    ",
"                                                                                                                                    ",
"                                                                                                                                    ",
"                                                > > > > > > , 1 1 , > > > > > >                                                     ",
"                                                2 8 5 5 5 5 2 < < 2 5 5 5 5 8 2                                                     ",
"                                > > > > > > % 2 9 s s w s 9 2 , , 2 9 s w s s 9 2 % > > > > > >                                     ",
"                                2 8 5 5 5 5 5 8 9 w w w w 9 2 , > 2 9 w w w w 9 8 5 5 5 5 5 8 2                                     ",
"                    > > > > % 2 9 s s w w w s 9 3 , < < < < , , , 1 < 2 < < , 3 9 s w w w s s 9 2 % > > > >                         ",
"                    2 8 5 5 5 8 9 w w w w w w 9 7 4 4 5 5 4 < , , 1 < 2 4 5 4 7 9 w w w w w w 9 8 5 5 5 8 2                         ",
"            > > % 2 9 s s w s 9 3 , < < 2 2 , 5 C &.] ] &.C 5 > > 2 8 p ) &.&.C 5 , 2 2 < < , 3 9 s w s s 9 2 % > >                 ",
"            2 6 5 8 9 w w w w 9 7 4 5 2 , , < 9 <.z.i.i.z.&.7 % > 2 w _ 0.i.z.<.9 < , , 2 5 4 7 9 w w w w 9 8 5 6 2                 ",
"        % < 9 s s 9 5 2 < < , 5 C &.&.C 2 2 k <.0.i.t.i.i.&.5 > > 2 9 K 0.i.i.0.<.k 2 2 C &.&.C 5 , < < 2 5 9 s s 9 < %             ",
"        2 9 w w w 9 < , 2 5 2 9 &.z.z.&.4 4 &.z.i.0.0.t.i.] 5 > > 2 9 K 0.i.0.i.z.&.4 4 &.z.z.&.9 2 5 2 , < 9 p w w 9 2             ",
"    % 2 9 w 3 , < < > 4 C &.) &.0.i.i.] 4 4 ] i.t.0.0.t.i.] 5 > > 2 9 K :.i.0.t.i.] 4 4 ] i.i.0.&.) &.C 4 > < 2 < 5 w 9 2 %         ",
"    2 9 w 9 7 4 5 2 > 5 &.z.i.i.t.0.i.) 4 4 ) i.t.0.0.t.i.] 5 : > 2 w _ 0.t.0.t.i.] 4 2 ) i.0.t.i.i.z.&.7 > < < < 5 9 w 9 2         ",
", 2 9 w 2 5 C &.&.C 2 4 ] i.i.0.0.e.i.) 4 4 ) i.t.0.0.t.i.] 5 % > 5 ) 0.0.0.0.t.i.&.4 2 ) i.e.0.0.i.i.] 5 , 8 w w 9 2 2 w 9 2 >     ",
"< 5 9 9 5 9 &.z.z.&.4 2 ) i.t.0.0.t.i.) 2 2 ) i.t.0.0.t.i.] 5 % % 7 &.i.t.0.0.0.0.) 2 4 ) i.t.0.0.t.i.] 4 < p _ K w 7 5 9 9 5 <     ",
"1 , , 5 C &.0.i.i.] 4 2 ) i.t.r.0.t.i.) 2 2 ) i.t.0.0.t.i.] 5 % % 5 { i.t.0.t.0._ w < 4 ] i.t.0.0.t.i.) 4 2 ) :.K s [ C 5 , , ,     ",
", 1 < 9 <.k.i.0.i.) 4 4 ) i.t.0.0.0.i.&.7 7 &.i.0.0.0.t.i.] 5 % % 5 ] i.t.0.i.:.K 9 < 5 ] i.t.0.0.t.i.) 2 4 &.e.K K t.0.9 < 1 ,     ",
"> 4 V <.0.i.0.e.i.) 4 4 ) i.t.0.0.0.i.&.s s &.i.0.0.0.t.i.&.7 % % 5 ] i.t.0.i.0.K 9 < 5 ] i.t.0.0.t.i.) 2 4 &.0.K l 0.r.<.V 4 >     ",
"> 7 &.z.i.0.0.t.i.) 4 4 ) i.t.0.0.0.i.&.s s &.i.0.0.0.0.0.) 5 > % 5 { i.t.0.i.0.) 9 < 4 ] i.t.0.0.t.i.) 4 4 &.0.C s :.i.z.&.7 %     ",
"> 5 &.i.t.0.0.t.i.) 4 4 ) i.t.0.0.0.i.&.7 7 &.i.0.0.t.0._ w 2 > % 7 &.i.t.0.i.0.K 9 < 4 ] i.t.0.0.t.i.) 4 4 &.0.s s :.i.i.&.5 >     ",
"> 5 ] i.t.0.0.t.i.] 4 2 ) i.t.0.0.t.i.) 2 2 ) i.t.0.i.:.K 9 2 > > 5 ) 0.0.t.i.0.K 9 < 4 ] i.t.0.0.t.i.) 2 4 { 0.) K 0.i.i.] 5 >     ",
"> 5 ] i.t.0.0.t.i.&.4 2 ) i.t.0.0.t.i.) 2 2 ) i.t.0.i.0.K 9 2 > > 2 w _ 0.i.i.0.K 9 < 4 ] i.0.0.i.i.i.) 2 4 ] i.0.0.0.t.i.] 5 >     ",
"> 5 ] i.t.0.0.0.0.) 2 4 ) i.t.0.0.t.i.) 4 4 ) i.t.0.i.0.K 9 2 > > 2 w ) &.0.t.0.K 9 < 4 ] i.t.0.0.0.i.] 4 2 ) i.i.i.0.0.i.] 5 :     ",
"> 5 ] i.t.0.t.0._ w < 4 ] i.t.0.0.t.i.) 4 4 ) i.0.r.i.0.K 9 2 > > 5 ) :.K ) 0.0.K 9 < 4 ] i.i.0.K ) 0.{ 4 2 ) i.t.0.0.e.i.] 5 %     ",
"> 5 ] i.t.0.i.:.K 9 < 5 ] i.t.0.0.t.i.) 2 2 ) i.i.0.0.&.K 9 2 > : 7 &.e.K s &.:.K 9 < 4 ] i.i.:.s s 0.&.4 4 ) i.t.0.0.t.i.] 5 %     ",
"> 5 ] i.t.0.i.0.K 9 < 5 ] i.t.0.0.t.i.) 2 2 ) i.i.e._ K c 9 2 > : 7 &.t.K s K K K 9 < 4 ] i.i.:.s C 0.&.4 4 ] i.t.0.0.t.i.] 5 :     ",
"> 5 ] i.t.0.i.0.K 9 < 4 ] i.t.0.0.0.i.&.7 7 &.i.{ B 8 8 s w 2 > > 5 ) &.9 5 5 8 s w < 5 ] i.i.:.s C 0.&.4 4 ) i.t.0.0.t.i.] 5 >     ",
"> 5 ] i.t.0.i.0.K 9 < 4 ] i.t.0.0.0.i.&.p s i.&.; X . & 9 s 5 > > 5 K w * . . & 9 s < 5 &.i.i.:.s s 0.&.4 4 ) i.t.0.0.t.i.&.7 :     ",
"> 5 ] i.t.0.i.0.K 9 < 4 ] i.t.0.0.0.i.0.K s K N m b.m.m x 5 2 , , < 5 x i m.m.m x 5 , 4 ) e.t.0.) ) e.{ 4 4 ) i.t.0.0.0.0.) 5 >     ",
"> 5 ] i.t.0.i.0.K 9 < 4 ] i.t.0.0.0.i.0.K 9 = M V.D.D.V.M @ , , , , @ m V.D.D.V.M @ % 2 w _ 0.r.0.0.i.] 4 4 ) i.t.0.t.0._ w 2 >     ",
"> 5 { i.t.0.i.0.K 9 < 5 ] i.t.0.0.0.i.0.) 5 . u A.F.F.S.v.. % 1 1 % . v.S.F.F.S.v.. # 2 9 K 0.t.0.0.i.] 2 2 ) i.t.0.i.:.K 9 2 >     ",
"> 7 &.i.t.0.i.:.K 9 < 5 ] i.i.i.0.0.i.0._ 8 o t B.Z.C.B.y . % 1 1 % . y B.C.C.B.y . % 2 9 K 0.0.K K 0.{ 2 2 ) i.t.0.i.0.K 9 2 >     ",
"> 5 ) 0.0.0.i.0._ w < 4 ] i.0.0.0.0.0.[ s 7 ; 0 M.N.N.M.0 $ , , , , $ e M.N.N.M.e $ - 2 9 K 0.0.K K 0.&.7 7 &.i.0.0.i.0.K 9 2 >     ",
"> 2 w _ 0.i.0.0.e.R 2 2 { e.) ) 0.0._ w 5 2 9 q 0 r r 0 q 7 2 , , 2 9 q 0 r r 0 q 8 < < 9 K 0.0.0.0.t.&.p p &.i.0.0.i.0.K 9 2 >     ",
", 2 9 K :.i.0.t.i.&.7 7 &.0.s s 0.0.K 9 2 5 s w ; + O ; p K 5 > > 3 s w ; O O ; w s 2 < 9 K 0.i.i.i.i.:.K K <.i.0.0.i.0.K 9 2 >     ",
", 2 9 K 0.i.0.t.i.0.s s 0.0.s s 0.0.K w w w s s 9 9 7 9 &.) 5 > > 2 w s 9 8 8 9 s 9 < < 9 K 0.i.0.0.i.0.K K :.i.i.i.i.0.K 9 2 >     ",
", 2 9 K 0.i.r.0.0.[ s s &.&.K ) 0.0.K w w w s s s K K _ i.&.7 : > 2 9 c K ) K K ) p 2 < 9 K 0.i.0.0.i.&.p p &.t.0.0.t.0.K 9 2 >     ",
", 2 9 K 0.i.i.0._ w 5 5 p _ &.0.t.0.) 9 5 5 w v s K &.0.i.&.5 > > 2 9 K &.0.0.0.t.) 4 , 9 K 0.i.0.e.i.] 5 5 &.0.K K 0.0.) 9 2 >     ",
", 2 9 K 0.i.i.:.K 9 1 < 9 K 0.i.i.0.) 9 < < 9 v w K 0.i.i.] 5 : > 2 w _ &.0.i.i.t.) 7 3 9 K 0.i.0.t.i.&.5 5 &.0.K K :.&.K 9 2 >     ",
", 2 9 K 0.i.i.:.K 9 < < 9 K 0.i.i.0.K 9 < < w v w l :.i.i.] 5 % > 5 ) :.K K 0.0._ s w w w K 0.i.0.0.i.0.s s &.t.0.&.) l v 9 2 >     ",
", 2 9 K &.0.0.0._ w 2 < 9 K 0.t.0.&.K 9 < < w K l ) 0.i.i.] 5 % % 7 &.t.K K &.&.s w w w w K &.0.0.0.0._ p s &.i.i.0.C w s 9 2 >     ",
", 2 9 v s ) 0.i.i.) 4 < 9 K 0.0.) s v 9 < < 9 K &.0.0.t.i.&.7 % % 5 &.i.0.&.) l s w 5 5 w C s ) 0.0._ w 3 7 &.i.i.0.K w s 9 2 >     ",
", 2 9 s w l 0.i.t.) 4 < 9 K 0.0.C w s 9 < < 9 K &.0.0.0.e.) 5 > % 5 ] i.i.0.C w s 9 < < 9 s w s &.:._ 9 , 4 ] i.0.&.C s s 9 2 >     ",
", 2 9 s w K 0.0._ 9 2 < 9 ) 0.0.K w s 9 < 2 9 l s ) 0.0._ w 2 > % 7 &.i.i.0.K w s 9 < < 9 s s s s ) 0.) 2 4 &.i._ s s s s 9 2 >     ",
", 2 w s s K &.:._ w 2 < 9 K :.&.K s s 9 < < 9 v s ) :.&.K 9 2 > > 5 ) 0.0.&.K s s 9 < < 9 v s s w K t.&.4 2 ) :.c w s s v w 2 >     ",
"> 2 w K s v K _ e.] 4 < w K K K c s K w 2 < 9 _ 0.0._ K K w 2 > > 4 s _ ) K c s K w 2 2 w K v s s ) i.<.5 < p _ c s s v K w 2 >     ",
", 2 9 w w 9 9 p &.R 4 < 9 w 9 9 9 w w 9 < < 8 s ] ) w 9 w 9 2 , , 2 8 w 9 9 9 w w 9 < < 9 w w 9 9 p ) C 4 < 8 w 9 9 9 w w 9 2 ,     ",
", < 2 2 2 2 2 2 5 5 < , 2 2 2 2 2 2 2 2 1 1 2 5 5 5 2 2 2 2 < , , < 2 2 2 2 2 2 2 2 1 1 2 2 2 2 2 4 5 5 < 1 2 2 2 2 2 2 2 2 < ,     ",
", , , > > , , > > > , , , > > , , > > , , , , > > > > , > , , , , , , > > , , > > , , , , > > , , > > > , , , > > , , > > , , , , , "
};
