/* XPM */
static char *f92bb1486f574ab48fa8ce5757559099W8q1lm0SbgzRssGT[] = {
/* columns rows colors chars-per-pixel */
"64 64 123 2 ",
"   c None",
".  c #000001",
"X  c #01020B",
"o  c #06090E",
"O  c #010412",
"+  c #060A14",
"@  c #0A0D13",
"#  c #050C1A",
"$  c #0A0F19",
"%  c #0E1116",
"&  c #0D111B",
"*  c #12161E",
"=  c #15181E",
"-  c #121721",
";  c #151923",
":  c #191C25",
">  c #171D28",
",  c #1B1E28",
"<  c #1C2027",
"1  c #1D222B",
"2  c #21252E",
"3  c #232730",
"4  c #252A33",
"5  c #292D36",
"6  c #2A2F39",
"7  c #2D323C",
"8  c #31343D",
"9  c #2F3540",
"0  c #323741",
"q  c #353A44",
"w  c #393D46",
"e  c #373D48",
"r  c #3A3E49",
"t  c #3D424C",
"y  c #3F4450",
"u  c #41454E",
"i  c #414651",
"p  c #444954",
"a  c #494D56",
"s  c #464C59",
"d  c #494F5A",
"f  c #4C5057",
"g  c #4C515C",
"h  c #50555F",
"j  c #4E5561",
"k  c #515762",
"l  c #545965",
"z  c #595E67",
"x  c #565C6A",
"c  c #595E6A",
"v  c #5C626D",
"b  c #5E6572",
"n  c #60656F",
"m  c #616672",
"M  c #636975",
"N  c #6A6F77",
"B  c #646B79",
"V  c #696E7A",
"C  c #6C727D",
"Z  c #71767F",
"A  c #6E7481",
"S  c #717682",
"D  c #747985",
"F  c #767C89",
"G  c #797E8B",
"H  c #7B818D",
"J  c #7E8491",
"K  c #818693",
"L  c #838996",
"P  c #868C99",
"I  c #898F9D",
"U  c #888E9B",
"Y  c #8A909A",
"T  c #8B909B",
"R  c #89909C",
"E  c #8A909C",
"W  c #8B919D",
"Q  c #8C929F",
"!  c #939AA6",
"~  c #949AA6",
"^  c #9399A6",
"/  c #969CA8",
"(  c #979DA8",
")  c #999FAB",
"_  c #989EAB",
"`  c #9AA0AB",
"'  c #9BA1AC",
"]  c #9BA1AE",
"[  c #9CA2AF",
"{  c #9EA4B0",
"}  c #9CA3B0",
"|  c #A1A8B4",
" . c #A2A8B4",
".. c #A2A9B5",
"X. c #A3A9B5",
"o. c #A4AAB6",
"O. c #A4ABB7",
"+. c #A5ACB8",
"@. c #A7AEBA",
"#. c #A7AEBB",
"$. c #A9AFBB",
"%. c #AAB1BD",
"&. c #ABB1BD",
"*. c #ABB2BF",
"=. c #ADB4C0",
"-. c #AEB4C1",
";. c #AEB5C2",
":. c #AFB5C2",
">. c #AFB6C3",
",. c #B1B7C4",
"<. c #B1B7C5",
"1. c #B2B8C5",
"2. c #B2B9C5",
"3. c #B1B8C6",
"4. c #B3BAC8",
"5. c #B4BBC8",
"6. c #B5BCC9",
"7. c #B6BDCA",
"8. c #B8BFCC",
"9. c #B9C0CE",
"0. c #BCC3D0",
"q. c #BCC3D1",
"w. c #BEC5D2",
/* pixels */
"                                                                                                                                ",
"                                                                                                                                ",
"                                                                                                                                ",
"                                                                                                                                ",
"                                                                                                                                ",
"                                                                                                                                ",
"                                                                                                                                ",
"                                                                                                                                ",
"                                                                                                                                ",
"                                                                                                                                ",
"                                                                                                                                ",
"                                                                                                                                ",
"                                            . . . . . . . . . . . . . . . . . .                                                 ",
"                                          3 3 4 4 4 4 4 4 4 5 4 4 4 4 4 5 6 6 4 4                                               ",
"                                        t a h z l k z M C D D D D D D D D G H Z M l                                             ",
"                                      : p v C F S S H E ) X.O.X.X.X.X.X.X.#.*.{ U N 8                                           ",
"                                    . 2 h C J L J J I ] *.7.8.7.7.7.7.7.7.9.9.3.` Z 8 .                                         ",
"                                  < 1 t v D K P J G L ~ O.;.,.;.;.;.;.;.;.3.3.*.( S 7 .                                         ",
"                                6 q t j M A F F V v m S K U T U U U U U U T T K C f X .                                         ",
"                              ; 7 y j v B V V m j r 8 w p f f f a a f f a a p t 7 # . .                                         ",
"                            + ; 0 g v M M b v k i 8 2 : : ; ; ; ; ; - ; , 2 6 8 w u p i                                         ",
"                            + ; 0 g b M b l d s g h h h g f d a s s s a k v C D H L K H V                                       ",
"                            + ; 0 g v b x i q p z C D F D D S S A A A S H E ` O.*.;.*.] H a .                                   ",
"                            + ; 7 g v b k 0 , u M H P P L L L L L K J J E [ ;.8.0.w.8.#.L f . .                                 ",
"                            + ; 7 g v b j 7 & t B K I L G F H L P L G S J ! #.3.5.,.$.( H a . .                                 ",
"                            + ; 7 g v b k 7 ; u V K L F m z B H L J C z m H ! } ) Q H C z w # .                                 ",
"                            + ; 7 g v b k 0 1 u V J J V p 8 h S L H v q w m J P H n u 6 4 4 1 ,                                 ",
"                            + ; 8 g v b k 0 1 u V J J m 8 X p A K G l : - k D H C i . . . , 3 4                                 ",
"                            + ; 0 j b m l q 1 u V J J m 6 . u A K G l $ O h D J C i . . . , 4 4                                 ",
"                            + ; 0 j b M l q 1 u V J J m 8 X p S K G l : : l G K S f # . . 1 2 3                                 ",
"                            + ; 7 s x b j 9 < u V J K V p 0 k S L H v w w v H L D z w 1 1 3 1 1                                 ",
"                              ; 7 y g j i 3 - u V K L F M v V H L J A v v A J L J A v g i 7 ; &                                 ",
"                                  q r r 7 O O u V K I L H G H L P L J G G J L P P L H C z r $ .                                 ",
"                                    1 2 > X : p M H L P L L L L L L L L L L L L L P L F v w O .                                 ",
"                                    + ; 3 6 q g v C S D D D S S A S S D D S S S D H G C z w X                                   ",
"                                    $ 1 q i g k j g g h k k h g g g h k k l l l z v v l g                                       ",
"                                    & 4 i l v x s 8 1 1 4 4 4 4 4 4 4 4 4 6 7 8 8 0 8 8                                         ",
"                                  X O 3 i x M b j t 8 7 8 0 0 0 0 0 0 0 8 4 - X . X X .                                         ",
"                                . . . - t l M B M m v v v v v v v v v v l s 7 X . . . .                                         ",
"                              . . . . $ q j b A S G H H G G G G G G H H S v u ; . X X .                                         ",
"                            8 8 q 0 7 0 t g c V F J L P L L L L L P I I J B p > $ 6 8 8                                         ",
"                          t f l m m v z l g g z V F J P P U I I U I Q E J B i , 7 g z z f                                       ",
"                        ; u v A H J G S M g r y l B S H K P U P P P I P H m t 1 i B D S z 0 .                                   ",
"                      . ; a V H P I U J C f 4 3 y x B S H L L L L L P P H m w 2 f S L H M w . .                                 ",
"                      . , g V H L P L J V a : > t l B A F H J H H J L P H m r 2 d A K H M w . .                                 ",
"                      X 1 s m A G H H S b i 1 4 i c B C A S S A A F L I K V u 1 i M S A v e X .                                 ",
"                      + 1 t l b B V V M l r 2 7 d v B B B B M m M A J P K V u 1 q l M b g 8 @ .                                 ",
"                      $ 1 0 i j c v c l s 0 1 7 i l v c x l l j l b A G D v t 1 7 g l j t 6 %                                   ",
"                          7 r i d g s i e 4 ; 2 q i d d s s i i i g x v z d 8 1 6 y s i w 4                                     ",
"                            7 7 q q 0 7 6 1 ; : 4 7 0 0 0 0 0 8 8 0 q w q 8 4 2 4 0 0 7 7                                       ",
"                              : : : ; : 1 4 6 4 2 , ; ; : : : : : : , < 1 1 2 2 1 1 : ;                                         ",
"                                $ + + ; 7 t p y 0 1 $ O + + + + * 2 7 e e 0 6 1 : * $                                           ",
"                                  $ $ 2 t j x l s 7 * + @ @ + + : 0 s l l d q 1 * ;                                             ",
"                                    & 4 p x b v d 7 * X X   X + 1 r j b b k r 1 $                                               ",
"                                    * 4 y k x l p 7 & .     . $ 1 q g x l d 0 : X                                               ",
"                                  * : 4 q i s i q 2 +       % ; 1 8 t s i r 6 * .                                               ",
"                                @ ; 1 3 6 7 7 6 2 *         = , 2 4 6 7 6 4 :                                                   ",
"                                  ; 1 1 , ; * $ o           * < 1 1 : - & + .                                                   ",
"                                    : : ; & + X .           % ; : ; * $ X . .                                                   ",
"                                      % @ @ @ o .           o @ % % @ @ o X .                                                   ",
"                                                                                                                                ",
"                                                                                                                                ",
"                                                                                                                                ",
"                                                                                                                                "
};
