/* XPM */
static char *_aa31d0b1fd94a3bdbed7d02f3756ddbF3jdsmoWwDrBwBU5[] = {
/* columns rows colors chars-per-pixel */
"64 64 60 1 ",
"  c #110E29",
". c #15122B",
"X c #18162E",
"o c #1A182F",
"O c #1D1C31",
"+ c #201F34",
"@ c #222236",
"# c #262639",
"$ c #27283A",
"% c #2B2B3D",
"& c #2E2E41",
"* c #302F43",
"= c #2F3041",
"- c #333445",
"; c #363847",
": c #363649",
"> c #38374C",
", c #373849",
"< c #3A3C4C",
"1 c #3D3E51",
"2 c #3E404F",
"3 c #3F4151",
"4 c #424454",
"5 c #454857",
"6 c #454659",
"7 c #474959",
"8 c #4A4C5B",
"9 c #48495C",
"0 c #4A4B5D",
"q c #4B4E5D",
"w c #4C4F5E",
"e c #4D505F",
"r c #4D4F61",
"t c #4E4F61",
"y c #4F5261",
"u c #505362",
"i c #505463",
"p c #535766",
"a c #545766",
"s c #545867",
"d c #545768",
"f c #57596A",
"g c #575B6A",
"h c #585B6A",
"j c #585B6B",
"k c #595D6B",
"l c #5B5E6D",
"z c #5C5F6F",
"x c #5C5F70",
"c c #5C606F",
"v c #5F6372",
"b c #606473",
"n c #626675",
"m c #636777",
"M c #636877",
"N c #646877",
"B c #666A79",
"V c #676C7B",
"C c #686C7B",
"Z c #686C7C",
/* pixels */
"@##$%%%&====&%%#@OO@#%%%%%%%%%%%%&=-====--=%$@O@-40rq4:%$$%%%%$#",
"@#%-<344444444<-$OO#-<4444333334444444444444,%@@-4ydpr542344<;=$",
"O#-38ippppppape4-#@-4wpapiiiiiiiippppppppsay5;$#-7pllhaiipppw4;%",
"o#,7acbvvvvvbvkw<%#,8gvbvvvvcvcvvvvvvvvvvbvly2%#-7gvnbvvvvbvgw<%",
"X#<qknBBMnnBBBvi<%#<ycNBBnnnnnnnnnnnnnnnNBBvp4%#-8knBBnnnBBNcu4%",
"X#<elNCVBBBBZBbp<#@,yvBZBBBBBBBBBBBBNBBBBCBns4%@-qlNBBBBBBZBvp4%",
"X#<elNCVBBBBZBvi<@O;evBZBBBBBBBBBBBBNBBBBZVna3#O-8lBCBBBBBZBvp4%",
"X#<qlnBBNnnBBBvu<@@;wcNBBnnnnnnnnnnnnnnnBBBvp3#O-8lnBBMnnBBNci4%",
"o#,7scbbvvvvbvly3=&<whvbvvvvvvvvvvvvvvvvvbvlu4-%,8gvbvvvvvbvhw<%",
"O#-4qisappppppuq43348ypppppppppppppppppppppiw54348ypaapppaspe4,%",
"@#%-<44444443447qeyq74434444334444444444333458eyw85444444444<;=$",
"@##%%%&%%%%%#%-4uklp5;%#$%%%%%%&-----=%%%#$-4ygls8<-%%=--=&%%%$#",
"###########+OO-4gvbh7-@oO@######@@@@@@##@OO&4pvnlq;@XO@@@#######",
"@#%&--;;----=-<wlnnly3-=--------%@oO#&-;---<qknnlw<#OO##%=----%#",
"O#-<47qq877777wacnnvge777778qq84,%O@-<7qq77esvnnzy4-&&*-<47773-$",
"O#-4ygllkhggggklvbbvclgggghkllku4-@%<qslllklvnnnlp71<<116yghaq<%",
"X#,qgbnnnbbbbbbbbbbbbbbbbbbnnMnk8;#%4pvnnnbbnnnvlar06660ygvnci4%",
"X#<wlnBBBNNNNNMnnnnnnnNNNNNBBBBlq;@%4snBBnbvvvvllgpuyyyugvnBvp4%",
"X#<elNZVBBBBBBBNnnnnNBBBBBBBVZBzq-O$4snBBblhggggghhllhhhznBBvp4%",
"X#<wlnBBBNNNNNNNMnnnNNNNNNNBBVBl8-O#4snBnldurryudhvvbvvvnnBBvp4%",
"X#,qgbNnnnnnnnnnnnnnnnnnnnnnnNnk8-@%4avnvdr06660ugxbnnnbnnNnly3%",
"O#-4uhlllkkkkkkkkkkkkkkkkkkkllkp8<-,4ughpq4111140uglccllllclp7<%",
"O#-<48wqq8qqqqwwwewwqq8888qqqqq877777qq741;----:14qyuyyeeewq5<-$",
"@#%&-;,;;;;,,,<<<<<<,;;:;;;---:27uspw4<-&%%####%=-<232<<<,,;--%#",
"############$$$%%%%%$######@OO#;8gvli4&OO+@@@@@@##%%%%$$$$######",
"@##$%%%%%%%%##@+OOO@#%%%%%%%#@%<elnbg4-##%&=---=%#+OOO@@#$%%%%$#",
"@#%-<34444<,--%#OoO$-<444333<<37pvnnly5334444444<-@oO+#&-,<3<;-$",
"O#-38upapiy041:&#O#-4wpppiiiuyislvnnvlgppppipaau7<%@+%-<47yie4,%",
"O#;7acbbvvldy71:%@%<qgvbvvcccccvvvbbbvvvvvvcvvvlp4-@#*<4walvky3%",
"X#<qknBBBnblgu7<&@%<ycNBBnnnnnnnnnbbvvvvbnnnNBBng7-@#:4rdlnnvp4%",
"X#<elNCVBNnvxhu4-@$<uvBZBBBBBBBNNnnvlgpskvnBBZCng5-+%<0dlnBBvs4%",
"X#<elNVBNnnnnvgq;@#<yvBZBBBBBBBBBBNvs844wknBZZCng4%o%3ulnBBBvp4%",
"X#<wlnBBnbbnnnzy<#@,ecNBBnnnnnnnBBNcy<%=4pvBBCBns4%O%4gbBBBNvi4%",
"o#,7avnnbbbnnbly<%%,qhvbvvvvvvvvvbvgq,%%<elvnnbcp4-%;7gvnnnvhw<%",
"O#-38igcvnnvlgi71--<7yassapppppppapy73,,48ypaapiw74348isgggpe4;%",
"@#%-;4qsvnnli74311<1444445444444434458qq7544333447wyeq875444<;=$",
"@##@@%<yznbg5-&-1444<--------=%%$#%;5pkhu4-%@@#-3wglgw4-&%&&%%$#",
"##@OO@;8gvzu<$@&1704>%@OO@@@@###Oo@-7hbvg4-O..O%3ivnle,@Xo@#####",
"@#$%&-27isi7,%%-4006<-#+OXo@$----=-3ylnnlw<-%%=,7gbnzw-O @&---%#",
"+#-<47q8744<;-:<46064<:&#OO%;47q777egvnncaw7445qplnnl8-O+-4773-$",
"O#;7pgsq2-&-<1446666664<&#@-4ygllhgkzvbbvlkgggghlvnbg7-@%3ygsq<%",
"X#<elbcy<$#-160000000073-##;7gbnnnbbbbbbbbbbbbbbnnnvg7-#-7hbvp4%",
"X#<yvNbs4--<7yppuyyyyr04-#@;qlnBBBNnnnnnnnMNNNNNNBBbg5-@-7lnns4&",
"X#<yvBNci87yphlllhgdpy03*OO-8lNZCBBBNnnnnNBBBBBBBBBng5&O%7lBng4&",
"X#<elNBnclllvvvbbbvlgu01&OO-7knVBBNNNnnnMNNNNNNNBBBnh5%o%7lMng4&",
"X#,qgbNnnbbbbbbnnnvldy61&@@-7gbNMnnnnnnnnnnnnnnnnMNbg7-@=7hbvp4%",
"O#-4ukccccczllllclkay74<:--27pklllkkkkkkkkkkkkkklllkp7<-<7pkgq<%",
"O#-<4qyyyyyyewwweeq74<,<347778qqwwewwqqq8qqqqqqqqqqq877778qq73-$",
"@#%--<<<<<<<,,;,,,;-%#%,7usi83;-;<<<<,;;;;;;;;;;---,48ispq4,-%%#",
"####$$$$$$$$#######@Oo$<elvkw,$O@#%%%$##########@OO$<wkvly<%OO@#",
"#####@@@@@##%%%%%%%%#$-4avnvi3%+OOOO@#%%%%%%%%%%%@@%3uvnvp4-@@@#",
"@##%%&&&&&*:<2443333<24ekbnvgq4-%@OO%-<4443333332<<48gvnbke4,-%$",
"@#%-:<<<><14qyppiiiuuupgzbnbchi7<%@#;4ypppiiiiiiuyyislvnbvkpq4;%",
"+#&:1666440yglvvvcccccvvvbbbnbvs7-#%2ylvvvvcccczccccvvbbbnnvgw<%",
"O#-<6ryrqrugcnnnnnnnnnnnnbbnNBnlq;#%4pvBBNnnnnnnnnnnnnnbnnBNci4%",
"O#-4rdggddgzbnBBBBBBBBBNnnnnBBBcw,#%4snBCBBBBBBBBBBBNnnnnBBBvp4%",
"o#;7pzvvxzvbnNBBBBBBBBBnnnnNBCBcw;#%4snBCBBBBBBNBBBBNNnnnBBBvp4%",
"X#,qgbnnnbnnnnnnnnnnnnnnnnnnBBnlq;#%4pbBBBnnnnnnnnnnnnnnnBBNci4%",
"X#,7gvnnbvvvvvvvvvvvvvvvvvvvbnvg7-#%3ylbnvvvvvvvvvvvvvvvvbnvhe2%",
"O#:4ygllkgggggggggggggggggggghgy4-#%<7pghggggggggggggggggghgu7<%",
"@%-<4qwwqqqqq777777777007770qq04<-%%:37qqq777700777777000qqq61:%",
"#%&--;,,;;;;;;;;;;;:;;;;;;;;;,;:-%%%&-:,,;;;;;;;;;;:;;;;;;,;:-&%",
"###@@@@@@@@@@@@@@@@@@@@@@@@@@@@@@###@@@@@@@@@@@@@@@@@@@@@@@@@@@#",
"##@Oo..........................XO@#@@OX.....................XO@@"
};
